<?xml version="1.0" standalone="no"?>
<!DOCTYPE svg PUBLIC "-//W3C//DTD SVG 20010904//EN"
 "http://www.w3.org/TR/2001/REC-SVG-20010904/DTD/svg10.dtd">
<svg version="1.0" xmlns="http://www.w3.org/2000/svg"
 width="1024.000000pt" height="1024.000000pt" viewBox="0 0 1024.000000 1024.000000"
 preserveAspectRatio="xMidYMid meet">
<metadata>
Created by potrace 1.14, written by Peter Selinger 2001-2017
</metadata>
<g transform="translate(0.000000,1024.000000) scale(0.100000,-0.100000)"
fill="#000000" stroke="none">
<path d="M5095 8754 c-22 -22 -36 -53 -85 -184 -23 -63 -48 -128 -56 -145 -7
-16 -38 -93 -69 -170 -30 -77 -60 -148 -65 -157 -6 -10 -10 -22 -10 -28 0 -6
-9 -29 -19 -53 -10 -23 -32 -76 -49 -117 -17 -41 -91 -226 -165 -410 -152
-377 -389 -965 -764 -1900 -140 -349 -261 -648 -268 -665 -7 -16 -36 -86 -63
-155 -87 -220 -354 -884 -367 -915 -17 -38 -192 -475 -215 -535 -9 -25 -88
-220 -175 -435 -86 -214 -182 -451 -211 -525 -30 -74 -59 -144 -64 -155 -34
-76 -265 -659 -275 -695 -20 -72 -6 -94 70 -106 29 -4 36 -3 30 8 -6 10 -5 11
6 1 7 -7 19 -13 27 -13 8 0 10 5 6 13 -6 9 -4 9 7 0 7 -7 19 -13 27 -13 8 0
10 5 6 13 -6 9 -4 9 7 -1 17 -15 43 -16 33 0 -5 7 -3 8 7 2 24 -15 62 -17 53
-2 -5 10 -4 11 7 1 17 -17 63 -17 53 -1 -5 7 -3 8 7 2 24 -15 62 -17 53 -2 -5
10 -4 11 7 1 17 -17 63 -17 53 -1 -5 7 -3 8 7 2 23 -14 62 -17 53 -3 -5 8 -3
9 7 3 24 -15 62 -17 53 -2 -5 10 -4 11 7 0 17 -16 42 -16 33 1 -6 9 -4 9 7 0
17 -17 43 -17 33 -1 -6 10 -4 10 7 2 10 -8 705 -11 2605 -10 2239 1 2593 3
2608 15 25 21 14 99 -27 192 -8 19 -47 115 -87 214 -39 99 -75 189 -80 200 -5
11 -18 43 -29 70 -10 28 -35 88 -54 135 -20 47 -151 373 -291 725 -141 352
-261 649 -266 660 -9 21 -97 240 -182 455 -27 69 -56 139 -63 155 -7 17 -68
167 -135 335 -67 168 -128 319 -135 335 -7 17 -30 73 -50 125 -21 52 -62 154
-91 225 -28 72 -80 200 -114 285 -34 85 -66 164 -71 175 -5 11 -34 83 -65 160
-156 392 -337 843 -349 870 -7 17 -41 100 -74 185 -34 85 -66 164 -71 175 -18
39 -228 571 -261 660 -18 50 -44 110 -57 135 -13 25 -32 72 -43 105 -12 33
-27 74 -34 90 -7 17 -33 80 -58 140 -66 159 -70 169 -71 175 -7 31 -133 326
-148 345 -23 29 -31 31 -53 9z"/>
</g>
</svg>
