<?xml version="1.0" standalone="no"?>
<!DOCTYPE svg PUBLIC "-//W3C//DTD SVG 20010904//EN"
 "http://www.w3.org/TR/2001/REC-SVG-20010904/DTD/svg10.dtd">
<svg version="1.0" xmlns="http://www.w3.org/2000/svg"
 width="512.000000pt" height="512.000000pt" viewBox="0 0 512.000000 512.000000"
 preserveAspectRatio="xMidYMid meet">
<metadata>
Created by potrace 1.14, written by Peter Selinger 2001-2017
</metadata>
<g transform="translate(0.000000,512.000000) scale(0.100000,-0.100000)"
fill="#000000" stroke="none">
<path d="M1935 4823 c6 -68 15 -138 21 -173 2 -14 7 -41 9 -60 23 -150 29
-181 36 -186 4 -2 6 -10 3 -17 -4 -12 27 -182 62 -332 8 -38 17 -83 20 -98 2
-16 6 -32 9 -37 3 -5 10 -30 15 -57 5 -26 21 -88 35 -138 13 -49 25 -99 25
-110 0 -12 -38 -85 -85 -163 -46 -78 -90 -153 -97 -166 -98 -179 -229 -436
-221 -436 5 0 3 -4 -3 -8 -5 -4 -18 -24 -27 -44 -9 -21 -24 -54 -34 -74 -9
-20 -16 -42 -16 -50 0 -8 -3 -12 -6 -9 -8 9 -52 -105 -45 -118 4 -7 4 -9 -1
-5 -9 9 -27 -23 -45 -79 -11 -35 -27 -74 -51 -128 -5 -11 -15 -38 -23 -60 -8
-22 -28 -78 -45 -124 -17 -46 -28 -88 -25 -92 3 -5 1 -9 -4 -9 -5 0 -17 -26
-26 -57 -23 -76 -36 -113 -48 -140 -6 -12 -8 -29 -4 -38 3 -9 2 -14 -3 -11 -5
3 -12 -9 -16 -27 -4 -17 -9 -34 -10 -37 -1 -3 -4 -12 -8 -20 -3 -8 -20 -67
-37 -130 -18 -63 -42 -153 -55 -200 -13 -47 -26 -96 -29 -110 -3 -14 -12 -52
-20 -86 -8 -34 -17 -72 -20 -85 -2 -13 -7 -31 -10 -39 -3 -8 -7 -26 -10 -40
-2 -14 -18 -91 -35 -171 -16 -80 -33 -161 -36 -180 -23 -124 -24 -143 -12
-158 9 -11 9 -13 0 -8 -16 10 -20 1 -27 -58 -3 -27 -8 -61 -11 -75 -12 -59
-15 -140 -6 -140 11 0 33 21 91 86 129 144 161 185 154 195 -4 7 -3 9 3 6 11
-7 43 26 93 93 14 18 40 49 57 69 18 20 33 39 33 43 0 5 8 16 18 26 19 21 34
40 77 97 16 22 33 41 37 43 4 2 8 10 8 17 0 8 6 18 13 22 7 4 19 18 27 30 8
12 59 82 113 157 53 74 97 138 97 142 0 4 7 14 15 23 17 18 125 178 125 185 0
3 20 34 45 69 25 36 45 68 45 72 0 3 12 25 28 48 40 63 67 108 140 237 14 25
35 63 48 85 12 22 47 87 76 145 29 58 55 107 58 110 3 3 35 67 70 142 35 76
67 138 70 138 6 0 50 -81 50 -93 0 -10 139 -288 169 -337 11 -19 28 -52 37
-72 9 -21 20 -38 26 -38 5 0 7 -4 3 -9 -3 -5 1 -16 9 -23 7 -8 17 -24 20 -36
4 -12 12 -22 17 -22 5 0 8 -3 7 -7 -3 -16 15 -43 25 -36 5 3 7 1 4 -4 -6 -10
9 -41 73 -146 14 -23 34 -57 45 -75 72 -120 371 -562 432 -637 4 -6 21 -28 38
-50 16 -22 33 -42 37 -43 4 -2 8 -9 8 -17 0 -7 6 -18 14 -24 8 -7 43 -49 77
-94 71 -93 77 -100 104 -130 11 -12 33 -39 48 -60 16 -21 33 -34 39 -31 6 4 8
3 5 -3 -5 -8 21 -46 78 -109 5 -7 35 -40 65 -74 119 -136 126 -140 116 -58 -3
24 -8 61 -11 83 -5 41 -11 80 -20 125 -4 22 -12 71 -21 125 -1 11 -8 45 -14
75 -6 30 -13 67 -15 82 -2 15 -6 35 -9 45 -3 10 -7 34 -10 53 -3 19 -10 50
-15 68 -5 18 -10 33 -10 35 -2 33 -16 87 -23 87 -5 0 -7 4 -4 9 9 15 -16 111
-27 104 -6 -3 -7 -1 -3 6 9 14 -3 93 -13 87 -4 -3 -6 8 -5 25 1 16 -2 32 -7
35 -5 3 -9 13 -9 23 0 17 -89 344 -109 401 -5 14 -35 104 -66 200 -32 96 -61
179 -66 185 -5 5 -9 15 -9 23 0 12 -35 108 -60 167 -5 11 -12 30 -15 43 -4 12
-11 19 -17 16 -7 -4 -8 -2 -4 5 8 13 -23 103 -33 97 -3 -2 -7 6 -8 17 0 12
-12 45 -24 72 -13 28 -24 52 -24 55 -3 9 -42 94 -87 188 -24 51 -48 89 -53 85
-4 -5 -5 -3 -1 4 9 15 -24 84 -37 76 -6 -3 -7 -1 -4 4 8 13 -61 148 -178 350
-95 163 -102 176 -127 215 -23 34 -23 51 3 143 11 41 18 79 15 84 -4 5 -2 11
3 13 8 3 60 216 91 369 6 30 14 69 17 85 4 16 7 41 7 57 1 15 4 27 7 27 3 0 6
6 6 13 0 6 3 28 7 47 17 97 26 156 32 197 2 20 6 48 8 62 8 48 15 106 21 164
5 45 3 57 -8 57 -16 0 -98 -86 -89 -94 3 -3 -2 -6 -11 -6 -10 0 -17 -3 -17 -8
0 -4 -17 -25 -37 -47 -21 -23 -63 -69 -93 -104 -30 -35 -62 -72 -70 -81 -53
-61 -69 -84 -63 -93 3 -6 1 -7 -5 -4 -5 4 -26 -14 -46 -40 -19 -27 -52 -68
-71 -93 -20 -25 -48 -60 -63 -79 -15 -18 -31 -40 -35 -47 -16 -27 -17 -26
-122 116 -11 15 -36 45 -55 68 -19 22 -53 63 -75 91 -22 28 -43 51 -47 51 -5
0 -8 5 -8 10 0 6 -15 28 -34 48 -42 46 -63 70 -100 116 -15 20 -32 33 -37 30
-5 -3 -8 -1 -7 5 4 14 -133 161 -150 161 -10 0 -12 -13 -7 -57z"/>
<path d="M2450 4395 c0 -18 96 -145 109 -145 17 0 113 134 103 144 -14 14 -30
2 -62 -49 -19 -30 -38 -55 -41 -55 -3 0 -23 25 -43 55 -20 30 -43 55 -51 55
-8 0 -15 -2 -15 -5z"/>
<path d="M2021 3711 c-13 -4 -33 -18 -44 -33 -43 -58 -10 -131 63 -136 67 -5
108 44 89 110 -12 44 -60 71 -108 59z"/>
<path d="M3049 3708 c-46 -16 -67 -84 -41 -131 29 -48 103 -55 140 -12 61 71
-10 174 -99 143z"/>
<path d="M2511 2374 c-23 -54 -29 -80 -22 -87 13 -13 11 -15 41 51 13 28 27
52 31 52 4 0 17 -25 30 -55 22 -54 32 -64 44 -45 10 16 -57 160 -75 160 -10 0
-28 -27 -49 -76z"/>
</g>
</svg>
