<?xml version="1.0" standalone="no"?>
<!DOCTYPE svg PUBLIC "-//W3C//DTD SVG 20010904//EN"
 "http://www.w3.org/TR/2001/REC-SVG-20010904/DTD/svg10.dtd">
<svg version="1.0" xmlns="http://www.w3.org/2000/svg"
 width="1024.000000pt" height="1024.000000pt" viewBox="0 0 1024.000000 1024.000000"
 preserveAspectRatio="xMidYMid meet">
<metadata>
Created by potrace 1.14, written by Peter Selinger 2001-2017
</metadata>
<g transform="translate(0.000000,1024.000000) scale(0.100000,-0.100000)"
fill="#000000" stroke="none">
<path d="M0 5120 l0 -5120 5120 0 5120 0 0 5120 0 5120 -5120 0 -5120 0 0
-5120z m5154 3628 c8 -13 194 -471 414 -1018 220 -547 875 -2177 1456 -3621
581 -1445 1056 -2634 1056 -2643 0 -9 -11 -28 -25 -41 l-24 -25 -2912 0 -2913
0 -23 22 c-13 12 -23 31 -23 43 0 23 2901 7245 2926 7283 8 12 23 22 34 22 11
0 26 -10 34 -22z"/>
</g>
</svg>
